<svg xmlns="http://www.w3.org/2000/svg" data-name="Layer 1" viewBox="0 0 32 40" x="0px" y="0px"><title>location, park, venue, map</title><polygon points="19 6.59 12 4.3 12 24.39 19 26.65 19 6.59"/><path d="M29.58,4.19a1,1,0,0,0-.9-.14L21,6.64V26.79L29.32,24A1,1,0,0,0,30,23V5A1,1,0,0,0,29.58,4.19Z"/><path d="M10,4.28,2.65,7.06A1,1,0,0,0,2,8V26a1,1,0,0,0,1,1,1,1,0,0,0,.35-.06L10,24.43Z"/><text x="0" y="47" fill="#000000" font-size="5px" font-weight="bold" font-family="'Helvetica Neue', Helvetica, Arial-Unicode, Arial, Sans-serif">Created by Baiti</text><text x="0" y="52" fill="#000000" font-size="5px" font-weight="bold" font-family="'Helvetica Neue', Helvetica, Arial-Unicode, Arial, Sans-serif">from the Noun Project</text></svg>